<?xml version="1.0" encoding="utf-8"?>
<!-- Generator: Adobe Illustrator 21.1.0, SVG Export Plug-In . SVG Version: 6.00 Build 0)  -->
<svg version="1.1" id="Layer_1" xmlns="http://www.w3.org/2000/svg" xmlns:xlink="http://www.w3.org/1999/xlink" x="0px" y="0px"
	 viewBox="0 0 24 24" style="enable-background:new 0 0 24 24;" xml:space="preserve">
<style type="text/css">
	.Gray{fill:#303030;}
</style>
<path class="Gray" d="M14,12l6-6c0.6-0.6,0.6-1.4,0-2c-0.6-0.6-1.4-0.6-2,0l-6,6L6,4C5.4,3.4,4.6,3.4,4,4C3.4,4.6,3.4,5.4,4,6l6,6
	l-6,6c-0.6,0.6-0.6,1.4,0,2c0.6,0.6,1.4,0.6,2,0l6-6l6,6c0.6,0.6,1.4,0.6,2,0c0.6-0.6,0.6-1.4,0-2L14,12z"/>
</svg>
