<?xml version="1.0" encoding="utf-8"?>
<!-- Generator: Adobe Illustrator 21.1.0, SVG Export Plug-In . SVG Version: 6.00 Build 0)  -->
<svg version="1.1" id="Layer_1" xmlns="http://www.w3.org/2000/svg" xmlns:xlink="http://www.w3.org/1999/xlink" x="0px" y="0px"
	 viewBox="0 0 80 80" style="enable-background:new 0 0 80 80;" xml:space="preserve">
<style type="text/css">
	.White{fill:#FFFFFF;}
</style>
<path class="White" d="M70,40c0-16.6-13.4-30-30-30S10,23.4,10,40s13.4,30,30,30c0.3,0,0.7,0,1,0V50h-8v-8h8v-7c0-6.1,4.9-11,11-11
	h6l0,0v7.9l0,0h-6c-1.6,0-3,1.3-3,3c0,0,0,2.9,0,7h9l-1,8h-8c0,7.4,0,15.5,0,18.6C61.2,64.8,70,53.4,70,40z"/>
</svg>
