<!DOCTYPE svg PUBLIC "-//W3C//DTD SVG 20010904//EN" "http://www.w3.org/TR/2001/REC-SVG-20010904/DTD/svg10.dtd">
<svg version="1.0" xmlns="http://www.w3.org/2000/svg" width="438px" height="120px" viewBox="0 0 4380 1200" preserveAspectRatio="xMidYMid meet">
<g id="layer101" fill="#3949ab" stroke="none">
 <path d="M50 1160 l-40 -40 0 -520 0 -520 40 -40 40 -40 520 0 520 0 40 40 40 40 0 520 0 520 -40 40 -40 40 -520 0 -520 0 -40 -40z"/>
 <path d="M1990 867 c-67 -36 -92 -90 -88 -193 2 -68 7 -87 31 -122 37 -57 90 -82 170 -82 50 0 71 5 97 23 58 39 74 70 78 153 l4 74 -126 0 c-105 0 -126 2 -126 15 0 24 36 53 73 60 29 6 85 -3 133 -22 11 -4 14 6 14 45 0 47 -2 51 -31 61 -18 6 -67 11 -109 11 -61 0 -86 -5 -120 -23z m170 -249 c0 -57 -73 -78 -109 -32 -36 45 -28 54 44 54 60 0 65 -2 65 -22z"/>
 <path d="M2373 879 l-33 -10 0 -69 c0 -39 2 -70 5 -70 3 0 18 9 33 20 67 48 193 43 200 -8 5 -33 -10 -47 -107 -97 -108 -56 -131 -86 -131 -172 0 -52 4 -66 27 -94 42 -49 95 -69 189 -69 45 0 96 3 113 6 31 6 31 7 31 71 0 58 -2 64 -17 58 -10 -5 -41 -14 -69 -22 -66 -17 -127 -1 -132 35 -5 34 13 50 105 94 105 50 133 85 133 171 0 70 -20 109 -70 140 -29 18 -52 22 -140 24 -58 1 -120 -2 -137 -8z"/>
 <path d="M2890 874 c-77 -34 -110 -91 -110 -194 0 -135 63 -202 198 -209 120 -6 183 23 223 101 17 34 20 55 17 118 -4 94 -33 146 -100 179 -54 26 -174 29 -228 5z m165 -109 c21 -20 25 -34 25 -85 0 -51 -4 -65 -25 -85 -32 -33 -78 -33 -110 0 -21 20 -25 34 -25 85 0 51 4 65 25 85 15 16 36 25 55 25 19 0 40 -9 55 -25z"/>
 <path d="M4010 867 c-67 -36 -92 -90 -88 -193 2 -68 7 -87 31 -122 37 -57 90 -82 170 -82 50 0 71 5 97 23 58 39 74 70 78 153 l4 74 -126 0 c-105 0 -126 2 -126 15 0 24 36 53 73 60 29 6 85 -3 133 -22 11 -4 14 6 14 45 0 47 -2 51 -31 61 -18 6 -67 11 -109 11 -61 0 -86 -5 -120 -23z m170 -249 c0 -57 -73 -78 -109 -32 -36 45 -28 54 44 54 60 0 65 -2 65 -22z"/>
 <path d="M1600 680 l0 -200 60 0 c57 0 60 1 60 24 l0 24 29 -29 c23 -23 39 -29 70 -29 l41 0 0 63 0 62 -46 0 c-73 0 -87 26 -92 170 l-5 115 -58 0 -59 0 0 -200z"/>
 <path d="M3290 585 l0 -295 60 0 60 0 0 295 0 295 -60 0 -60 0 0 -295z"/>
 <path d="M3537 687 c-37 -105 -67 -195 -67 -199 0 -5 31 -8 68 -8 l68 0 40 142 40 141 39 -141 38 -142 69 0 c37 0 68 4 68 9 0 5 -32 95 -71 200 l-71 191 -77 0 -76 0 -68 -193z"/>
 </g>
<g id="layer102" fill="#fefeff" stroke="none">
 <path d="M345 885 c-49 -48 -16 -125 55 -125 21 0 43 6 50 15 10 12 45 15 195 15 168 0 184 -2 208 -20 31 -25 51 -80 42 -119 -3 -15 -20 -41 -36 -57 l-30 -29 -202 -3 c-205 -3 -227 -7 -227 -43 0 -33 34 -39 217 -39 198 0 238 7 289 52 81 72 92 180 27 266 -48 63 -81 72 -279 72 -161 0 -178 2 -201 20 -35 27 -78 26 -108 -5z"/>
 <path d="M1990 867 c-67 -36 -92 -90 -88 -193 2 -68 7 -87 31 -122 37 -57 90 -82 170 -82 50 0 71 5 97 23 58 39 74 70 78 153 l4 74 -126 0 c-105 0 -126 2 -126 15 0 24 36 53 73 60 29 6 85 -3 133 -22 11 -4 14 6 14 45 0 47 -2 51 -31 61 -18 6 -67 11 -109 11 -61 0 -86 -5 -120 -23z m170 -249 c0 -57 -73 -78 -109 -32 -36 45 -28 54 44 54 60 0 65 -2 65 -22z"/>
 <path d="M2373 879 l-33 -10 0 -69 c0 -39 2 -70 5 -70 3 0 18 9 33 20 67 48 193 43 200 -8 5 -33 -10 -47 -107 -97 -108 -56 -131 -86 -131 -172 0 -52 4 -66 27 -94 42 -49 95 -69 189 -69 45 0 96 3 113 6 31 6 31 7 31 71 0 58 -2 64 -17 58 -10 -5 -41 -14 -69 -22 -66 -17 -127 -1 -132 35 -5 34 13 50 105 94 105 50 133 85 133 171 0 70 -20 109 -70 140 -29 18 -52 22 -140 24 -58 1 -120 -2 -137 -8z"/>
 <path d="M2890 874 c-77 -34 -110 -91 -110 -194 0 -135 63 -202 198 -209 120 -6 183 23 223 101 17 34 20 55 17 118 -4 94 -33 146 -100 179 -54 26 -174 29 -228 5z m165 -109 c21 -20 25 -34 25 -85 0 -51 -4 -65 -25 -85 -32 -33 -78 -33 -110 0 -21 20 -25 34 -25 85 0 51 4 65 25 85 15 16 36 25 55 25 19 0 40 -9 55 -25z"/>
 <path d="M4010 867 c-67 -36 -92 -90 -88 -193 2 -68 7 -87 31 -122 37 -57 90 -82 170 -82 50 0 71 5 97 23 58 39 74 70 78 153 l4 74 -126 0 c-105 0 -126 2 -126 15 0 24 36 53 73 60 29 6 85 -3 133 -22 11 -4 14 6 14 45 0 47 -2 51 -31 61 -18 6 -67 11 -109 11 -61 0 -86 -5 -120 -23z m170 -249 c0 -57 -73 -78 -109 -32 -36 45 -28 54 44 54 60 0 65 -2 65 -22z"/>
 <path d="M1600 680 l0 -200 60 0 c57 0 60 1 60 24 l0 24 29 -29 c23 -23 39 -29 70 -29 l41 0 0 63 0 62 -46 0 c-73 0 -87 26 -92 170 l-5 115 -58 0 -59 0 0 -200z"/>
 <path d="M3290 585 l0 -295 60 0 60 0 0 295 0 295 -60 0 -60 0 0 -295z"/>
 <path d="M3537 687 c-37 -105 -67 -195 -67 -199 0 -5 31 -8 68 -8 l68 0 40 142 40 141 39 -141 38 -142 69 0 c37 0 68 4 68 9 0 5 -32 95 -71 200 l-71 191 -77 0 -76 0 -68 -193z"/>
 <path d="M376 705 c-126 -45 -171 -195 -89 -303 48 -63 81 -72 279 -72 161 0 178 -2 201 -20 35 -27 78 -26 108 5 49 48 16 125 -55 125 -21 0 -43 -6 -50 -15 -10 -12 -45 -15 -195 -15 -168 0 -184 2 -208 20 -31 25 -51 80 -42 119 3 15 20 41 36 57 l30 29 202 3 c123 2 206 7 214 14 19 16 16 46 -6 58 -30 16 -377 12 -425 -5z"/>
 </g>

</svg>