<?xml version="1.0" encoding="utf-8"?>
<!-- Generator: Adobe Illustrator 21.1.0, SVG Export Plug-In . SVG Version: 6.00 Build 0)  -->
<svg version="1.1" id="Layer_1" xmlns="http://www.w3.org/2000/svg" xmlns:xlink="http://www.w3.org/1999/xlink" x="0px" y="0px"
	 viewBox="0 0 130 35" style="enable-background:new 0 0 130 35;" xml:space="preserve">
<style type="text/css">
	.White{fill:#3647ac;}
</style>
<path class="White" d="M15.5,22h12c0.8,0,1.5-0.7,1.5-1.5S28.3,19,27.5,19h-12C13,19,11,17,11,14.5s2-4.5,4.5-4.5h12
	c0.5,0.6,1.2,1,2,1c1.4,0,2.5-1.1,2.5-2.5C32,7.1,30.9,6,29.5,6c-0.8,0-1.5,0.4-2,1h-12l0,0C11.4,7,8,10.4,8,14.5S11.4,22,15.5,22
	L15.5,22z"/>
<path class="White" d="M27.5,13h-12c-0.8,0-1.5,0.7-1.5,1.5s0.7,1.5,1.5,1.5h12c2.5,0,4.5,2,4.5,4.5S30,25,27.5,25h-12
	c-0.5-0.6-1.2-1-2-1c-1.4,0-2.5,1.1-2.5,2.5c0,1.4,1.1,2.5,2.5,2.5c0.8,0,1.5-0.4,2-1h12c4.1,0,7.5-3.4,7.5-7.5S31.6,13,27.5,13z"/>
<path class="White" d="M51.7,16.6c-0.3-0.3-0.8-0.4-1.4-0.4c-0.8,0-1.5,0.4-2,1.1s-0.8,1.7-0.8,3V26h-2.7V14h2.7v2.5h0
	c0.3-0.8,0.7-1.5,1.2-2s1.2-0.7,1.8-0.7c0.5,0,0.9,0.1,1.1,0.2V16.6z"/>
<path class="White" d="M63.6,20.7h-8.2c0,1.1,0.4,2,1,2.6s1.5,0.9,2.7,0.9c1.3,0,2.5-0.4,3.5-1.1v2.2c-1.1,0.7-2.5,1-4.3,1
	c-1.8,0-3.2-0.5-4.2-1.6S52.7,22,52.7,20c0-1.9,0.6-3.4,1.7-4.6s2.5-1.8,4.1-1.8s2.9,0.5,3.8,1.6s1.3,2.5,1.3,4.4V20.7z M61,18.8
	c0-1-0.2-1.7-0.7-2.3s-1.1-0.8-1.9-0.8c-0.8,0-1.4,0.3-2,0.9s-0.9,1.3-1,2.2H61z"/>
<path class="White" d="M65.7,25.3v-2.9c0.3,0.2,0.6,0.4,0.9,0.6s0.7,0.3,1.1,0.5s0.8,0.2,1.2,0.3s0.8,0.1,1.1,0.1
	c1.2,0,2-0.2,2.6-0.6s0.9-1,0.9-1.7c0-0.4-0.1-0.7-0.3-1s-0.5-0.6-0.8-0.8s-0.7-0.5-1.2-0.7s-1-0.5-1.5-0.7
	c-0.6-0.3-1.1-0.6-1.6-0.9s-0.9-0.7-1.3-1s-0.6-0.8-0.9-1.3c-0.2-0.5-0.3-1-0.3-1.7c0-0.8,0.2-1.5,0.5-2.1c0.4-0.6,0.8-1.1,1.4-1.4
	s1.2-0.7,2-0.8s1.5-0.3,2.3-0.3c1.8,0,3,0.2,3.8,0.6v2.8c-1-0.7-2.2-1-3.7-1c-0.4,0-0.8,0-1.2,0.1s-0.8,0.2-1.1,0.4
	s-0.6,0.4-0.8,0.7s-0.3,0.6-0.3,1c0,0.4,0.1,0.7,0.2,1s0.4,0.5,0.7,0.8s0.7,0.4,1.1,0.7s0.9,0.4,1.5,0.7c0.6,0.3,1.1,0.6,1.7,1
	s1,0.7,1.4,1.1s0.7,0.9,0.9,1.4s0.3,1.1,0.3,1.7c0,0.9-0.2,1.6-0.5,2.2s-0.8,1.1-1.4,1.4s-1.3,0.6-2,0.8s-1.6,0.2-2.4,0.2
	c-0.3,0-0.6,0-1-0.1s-0.8-0.1-1.3-0.2s-0.8-0.2-1.2-0.3S66,25.5,65.7,25.3z"/>
<path class="White" d="M84.6,26.3c-1.9,0-3.3-0.6-4.4-1.7s-1.7-2.6-1.7-4.5c0-2,0.6-3.6,1.7-4.7s2.7-1.7,4.7-1.7
	c1.9,0,3.3,0.6,4.4,1.7s1.6,2.6,1.6,4.6c0,1.9-0.6,3.4-1.7,4.6S86.5,26.3,84.6,26.3z M84.7,15.9c-1.1,0-1.9,0.4-2.5,1.1
	s-0.9,1.8-0.9,3.1c0,1.3,0.3,2.2,0.9,3s1.5,1.1,2.5,1.1c1.1,0,1.9-0.4,2.5-1.1s0.9-1.7,0.9-3c0-1.3-0.3-2.3-0.9-3.1
	S85.8,15.9,84.7,15.9z"/>
<path class="White" d="M96.3,26h-2.7V8.2h2.7V26z"/>
<path class="White" d="M110.2,14l-4.6,12h-2.9l-4.4-12h3l2.7,8.4c0.2,0.6,0.3,1.2,0.4,1.6h0c0.1-0.6,0.2-1.1,0.3-1.6l2.8-8.4H110.2z
	"/>
<path class="White" d="M122,20.7h-8.2c0,1.1,0.4,2,1,2.6s1.5,0.9,2.7,0.9c1.3,0,2.5-0.4,3.5-1.1v2.2c-1.1,0.7-2.5,1-4.3,1
	c-1.8,0-3.2-0.5-4.2-1.6s-1.5-2.6-1.5-4.6c0-1.9,0.6-3.4,1.7-4.6s2.5-1.8,4.1-1.8s2.9,0.5,3.8,1.6s1.3,2.5,1.3,4.4V20.7z
	 M119.4,18.8c0-1-0.2-1.7-0.7-2.3s-1.1-0.8-1.9-0.8c-0.8,0-1.4,0.3-2,0.9s-0.9,1.3-1,2.2H119.4z"/>
</svg>
