<?xml version="1.0" encoding="utf-8"?>
<!-- Generator: Adobe Illustrator 21.1.0, SVG Export Plug-In . SVG Version: 6.00 Build 0)  -->
<svg version="1.1" id="Layer_1" xmlns="http://www.w3.org/2000/svg" xmlns:xlink="http://www.w3.org/1999/xlink" x="0px" y="0px"
	 viewBox="0 0 110 110" style="enable-background:new 0 0 110 110;" xml:space="preserve">
<style type="text/css">
	.st0{fill:#F8B64C;}
	.st1{fill:#EFA420;}
	.st2{fill:#FFD15C;}
	.st3{fill:#FFC952;}
	.st4{fill:#FFFFFF;}
	.st5{opacity:0.2;fill:#FFFFFF;}
</style>
<g>
	<polyline class="st0" points="46,90 50,76 60,76 64,90 	"/>
	<g>
		<path class="st1" d="M60,76H50l-1.7,6l5.9,2.6c0.5,0.2,1.1,0.2,1.6,0l5.9-2.6L60,76z"/>
	</g>
	<g>
		<path class="st0" d="M5,15v8.5c0,20.8,12.5,39.2,30.6,46.7c5.8,2.5,12.3,3.7,19,3.7s13.1-1.2,19-3.7C91.6,62.8,105,44.4,105,23.5
			V15H5z M96.2,24.2c0,10-3.5,19-9.6,26.2c-7.7,9.2-19.2,15.2-32.1,15.2s-24.4-5.8-32.1-15.2C16.6,43.4,13,34.2,13,24.2V24h83
			L96.2,24.2L96.2,24.2z"/>
	</g>
	<path class="st2" d="M87,8v23.7C87,52.5,74.3,71.5,55,79c-19.3-7.7-32-26.5-32-47.5L23,8H87z"/>
	<rect x="23" y="8" class="st3" width="64" height="3.1"/>
	<path class="st0" d="M87.5,9h-65C21.1,9,20,7.9,20,6.5v0C20,5.1,21.1,4,22.5,4h65C88.9,4,90,5.1,90,6.5v0C90,7.9,88.9,9,87.5,9z"/>
	<path class="st2" d="M79,106H31v-6c0-5.5,4.5-10,10-10h28c5.5,0,10,4.5,10,10V106z"/>
	<g>
		<rect x="31" y="103" class="st3" width="48" height="3"/>
	</g>
</g>
<path class="st4" d="M80.6,16.4L80.6,16.4c-0.6-0.6-1.4-0.6-2,0l-2,2l-2-2c-0.6-0.6-1.4-0.6-2,0v0c-0.6,0.6-0.6,1.4,0,2l2,2l-2,2
	c-0.6,0.6-0.6,1.4,0,2v0c0.6,0.6,1.4,0.6,2,0l2-2l2,2c0.6,0.6,1.4,0.6,2,0v0c0.6-0.6,0.6-1.4,0-2l-2-2l2-2
	C81.1,17.9,81.1,17,80.6,16.4z"/>
<g>
	<path class="st5" d="M87,15V9h0.5C88.9,9,90,7.9,90,6.5S88.9,4,87.5,4H55v4v1v2.1V15v9v41.7V74v2v3v5.8V90v13v3h24v-3v-3
		c0-5.5-4.5-10-10-10h-5l-2.3-8l-1.5-5.4c2.3-1.2,4.4-2.6,6.5-4.1c2.4-0.6,4.7-1.4,6.9-2.3C91.6,62.8,105,44.4,105,23.5V15H87z
		 M86.6,50.5c-1.8,2.1-3.8,4.1-5.9,5.8c4-7.4,6.3-15.8,6.3-24.6l0-7.7h9l0.2,0.2C96.2,34.2,92.7,43.2,86.6,50.5z"/>
</g>
<path class="st4" d="M64.7,28.7l1.5-1.5c0.3-0.3,0.3-0.7,0-1c-0.3-0.3-0.7-0.3-1,0l-1.5,1.5l-1.5-1.5c-0.3-0.3-0.7-0.3-1,0
	c-0.3,0.3-0.3,0.7,0,1l1.5,1.5l-1.5,1.5c-0.3,0.3-0.3,0.7,0,1c0.3,0.3,0.7,0.3,1,0l1.5-1.5l1.5,1.5c0.3,0.3,0.7,0.3,1,0
	c0.3-0.3,0.3-0.7,0-1L64.7,28.7z"/>
</svg>
