<?xml version="1.0" encoding="utf-8"?>
<!-- Generator: Adobe Illustrator 21.1.0, SVG Export Plug-In . SVG Version: 6.00 Build 0)  -->
<svg version="1.1" id="Layer_1" xmlns="http://www.w3.org/2000/svg" xmlns:xlink="http://www.w3.org/1999/xlink" x="0px" y="0px"
	 viewBox="0 0 80 80" style="enable-background:new 0 0 80 80;" xml:space="preserve">
<style type="text/css">
	.White{fill:#FFFFFF;}
</style>
<path class="White" d="M40,10c-16.6,0-30,13.4-30,30s13.4,30,30,30s30-13.4,30-30S56.6,10,40,10z M56.2,32.1c0,0,4.3,12.1-6.2,18.9
	c-12.3,8-24,2-24,2c11.6-0.4,10.2-2.9,10.2-2.9c-3.4,0.2-7.3-2.1-8-5c0,0,2.5,0.5,3.8-0.1c0.5-0.2-6-0.1-6.8-7.9
	c0,0,4.9,0.6,3.8-0.1c-3.1-1.9-4.9-4.5-3.7-9.9c0,0,10.2,8.8,17,8c0,0-1.2-4.6,2-7c0.7-0.5,1.5-0.9,2.2-1.1c2.1-0.6,4.4-0.1,6.2,1.2
	c0.6,0.4,1.5,0.9,1.6,0.9c0.6,0,4-2,4-2s-0.2,1.8-2,3c0,0,1.5-0.1,3-1C59.6,28.9,57.5,31.4,56.2,32.1z"/>
</svg>
