<?xml version="1.0" encoding="utf-8"?>
<!-- Generator: Adobe Illustrator 21.1.0, SVG Export Plug-In . SVG Version: 6.00 Build 0)  -->
<svg version="1.1" id="Layer_1" xmlns="http://www.w3.org/2000/svg" xmlns:xlink="http://www.w3.org/1999/xlink" x="0px" y="0px"
	 viewBox="0 0 24 24" style="enable-background:new 0 0 24 24;" xml:space="preserve">
<style type="text/css">
	.White{fill:#3647ac;}
</style>
<path class="White" d="M4.4,9.4C5,9.8,2.2,9.5,2.2,9.5c0.5,4.5,4.2,4.5,4,4.6C5.4,14.4,4,14.2,4,14.2c0.4,1.7,2.7,3,4.7,2.9
	c0,0,0.8,1.5-5.9,1.7c0,0,6.8,3.5,14-1.2c6.1-4,3.6-11,3.6-11c0.8-0.4,2-1.9,1.8-1.7c-0.9,0.5-1.7,0.6-1.7,0.6
	c1-0.7,1.2-1.7,1.2-1.7S19.7,5,19.4,5c-0.1,0-0.6-0.3-0.9-0.5c-1-0.8-2.4-1-3.6-0.7c-0.4,0.1-0.9,0.3-1.3,0.6
	c-1.9,1.4-1.2,4.1-1.2,4.1C8.4,9,2.5,3.8,2.5,3.8C1.5,6.8,2.6,8.3,4.4,9.4z"/>
</svg>
